<svg width="31" height="31" viewBox="0 0 31 31" fill="none" xmlns="http://www.w3.org/2000/svg">
<mask id="path-1-inside-1_2_122" fill="white">
<path d="M7.07956 2.57293C6.96518 2.4258 6.82081 2.30469 6.65603 2.21764C6.49125 2.13059 6.30983 2.07961 6.12383 2.06806C5.93783 2.05652 5.7515 2.08468 5.57722 2.15068C5.40294 2.21668 5.24469 2.31901 5.113 2.45087L3.10962 4.45618C2.17381 5.39393 1.82894 6.72112 2.23775 7.88556C3.93641 12.7043 6.69623 17.0798 10.3132 20.6886C13.922 24.3056 18.2975 27.0654 23.1162 28.7641C24.2807 29.1729 25.6079 28.828 26.5456 27.8922L28.549 25.8888C28.6809 25.7571 28.7832 25.5989 28.8492 25.4246C28.9152 25.2503 28.9434 25.064 28.9318 24.878C28.9203 24.692 28.8693 24.5106 28.7822 24.3458C28.6952 24.181 28.5741 24.0366 28.4269 23.9222L23.9571 20.4464C23.7998 20.3247 23.617 20.2402 23.4224 20.1993C23.2277 20.1584 23.0264 20.162 22.8334 20.21L18.5903 21.2698C18.0238 21.4104 17.4307 21.4024 16.8683 21.2466C16.3059 21.0908 15.7932 20.7925 15.3798 20.3805L10.6213 15.6201C10.209 15.2069 9.91028 14.6943 9.75414 14.1319C9.598 13.5694 9.58971 12.9762 9.73006 12.4096L10.7918 8.16649C10.8398 7.97349 10.8434 7.77213 10.8025 7.57751C10.7616 7.38289 10.6771 7.20007 10.5554 7.04274L7.07956 2.57293ZM3.65019 0.989993C3.98924 0.650833 4.39656 0.387683 4.84512 0.218018C5.29367 0.0483529 5.77319 -0.0239456 6.25183 0.00592345C6.73046 0.0357925 7.19727 0.167146 7.62125 0.391261C8.04523 0.615376 8.41668 0.927124 8.71094 1.30581L12.1868 5.77368C12.8242 6.59324 13.049 7.66081 12.7971 8.66831L11.7373 12.9114C11.6829 13.1312 11.686 13.3613 11.7465 13.5795C11.8069 13.7978 11.9225 13.9967 12.0822 14.1572L16.8426 18.9177C17.0033 19.0777 17.2026 19.1935 17.4212 19.2539C17.6398 19.3144 17.8703 19.3173 18.0904 19.2626L22.3316 18.2027C22.8288 18.0792 23.3476 18.0699 23.8489 18.1756C24.3503 18.2813 24.8212 18.4992 25.2262 18.8131L29.6941 22.2889C31.3002 23.5386 31.4475 25.9121 30.0099 27.3477L28.0065 29.3511C26.5727 30.7849 24.4299 31.4146 22.4323 30.7112C17.3186 28.9144 12.6761 25.9871 8.85044 22.1475C5.01103 18.3224 2.08382 13.6806 0.286686 8.56756C-0.414689 6.57193 0.214998 4.42712 1.64875 2.99337L3.65019 0.989993ZM24.5016 1.25156C24.5915 1.16134 24.6985 1.08976 24.8161 1.04093C24.9338 0.992088 25.06 0.966949 25.1874 0.966949C25.3149 0.966949 25.441 0.992088 25.5587 1.04093C25.6764 1.08976 25.7833 1.16134 25.8733 1.25156L30.7171 6.09531C30.8073 6.18529 30.8789 6.2922 30.9277 6.40989C30.9765 6.52758 31.0017 6.65376 31.0017 6.78118C31.0017 6.9086 30.9765 7.03478 30.9277 7.15247C30.8789 7.27016 30.8073 7.37707 30.7171 7.46706L25.8733 12.3108C25.6914 12.4927 25.4447 12.5949 25.1874 12.5949C24.9302 12.5949 24.6835 12.4927 24.5016 12.3108C24.3197 12.1289 24.2175 11.8822 24.2175 11.6249C24.2175 11.3677 24.3197 11.121 24.5016 10.9391L27.6926 7.74993H18.4062C18.1493 7.74993 17.9029 7.64787 17.7212 7.46619C17.5395 7.28451 17.4374 7.03811 17.4374 6.78118C17.4374 6.52425 17.5395 6.27785 17.7212 6.09617C17.9029 5.9145 18.1493 5.81243 18.4062 5.81243H27.6926L24.5016 2.62331C24.4113 2.53332 24.3398 2.42641 24.2909 2.30872C24.2421 2.19103 24.217 2.06485 24.217 1.93743C24.217 1.81001 24.2421 1.68383 24.2909 1.56614C24.3398 1.44845 24.4113 1.34154 24.5016 1.25156Z"/>
</mask>
<path d="M7.07956 2.57293C6.96518 2.4258 6.82081 2.30469 6.65603 2.21764C6.49125 2.13059 6.30983 2.07961 6.12383 2.06806C5.93783 2.05652 5.7515 2.08468 5.57722 2.15068C5.40294 2.21668 5.24469 2.31901 5.113 2.45087L3.10962 4.45618C2.17381 5.39393 1.82894 6.72112 2.23775 7.88556C3.93641 12.7043 6.69623 17.0798 10.3132 20.6886C13.922 24.3056 18.2975 27.0654 23.1162 28.7641C24.2807 29.1729 25.6079 28.828 26.5456 27.8922L28.549 25.8888C28.6809 25.7571 28.7832 25.5989 28.8492 25.4246C28.9152 25.2503 28.9434 25.064 28.9318 24.878C28.9203 24.692 28.8693 24.5106 28.7822 24.3458C28.6952 24.181 28.5741 24.0366 28.4269 23.9222L23.9571 20.4464C23.7998 20.3247 23.617 20.2402 23.4224 20.1993C23.2277 20.1584 23.0264 20.162 22.8334 20.21L18.5903 21.2698C18.0238 21.4104 17.4307 21.4024 16.8683 21.2466C16.3059 21.0908 15.7932 20.7925 15.3798 20.3805L10.6213 15.6201C10.209 15.2069 9.91028 14.6943 9.75414 14.1319C9.598 13.5694 9.58971 12.9762 9.73006 12.4096L10.7918 8.16649C10.8398 7.97349 10.8434 7.77213 10.8025 7.57751C10.7616 7.38289 10.6771 7.20007 10.5554 7.04274L7.07956 2.57293ZM3.65019 0.989993C3.98924 0.650833 4.39656 0.387683 4.84512 0.218018C5.29367 0.0483529 5.77319 -0.0239456 6.25183 0.00592345C6.73046 0.0357925 7.19727 0.167146 7.62125 0.391261C8.04523 0.615376 8.41668 0.927124 8.71094 1.30581L12.1868 5.77368C12.8242 6.59324 13.049 7.66081 12.7971 8.66831L11.7373 12.9114C11.6829 13.1312 11.686 13.3613 11.7465 13.5795C11.8069 13.7978 11.9225 13.9967 12.0822 14.1572L16.8426 18.9177C17.0033 19.0777 17.2026 19.1935 17.4212 19.2539C17.6398 19.3144 17.8703 19.3173 18.0904 19.2626L22.3316 18.2027C22.8288 18.0792 23.3476 18.0699 23.8489 18.1756C24.3503 18.2813 24.8212 18.4992 25.2262 18.8131L29.6941 22.2889C31.3002 23.5386 31.4475 25.9121 30.0099 27.3477L28.0065 29.3511C26.5727 30.7849 24.4299 31.4146 22.4323 30.7112C17.3186 28.9144 12.6761 25.9871 8.85044 22.1475C5.01103 18.3224 2.08382 13.6806 0.286686 8.56756C-0.414689 6.57193 0.214998 4.42712 1.64875 2.99337L3.65019 0.989993ZM24.5016 1.25156C24.5915 1.16134 24.6985 1.08976 24.8161 1.04093C24.9338 0.992088 25.06 0.966949 25.1874 0.966949C25.3149 0.966949 25.441 0.992088 25.5587 1.04093C25.6764 1.08976 25.7833 1.16134 25.8733 1.25156L30.7171 6.09531C30.8073 6.18529 30.8789 6.2922 30.9277 6.40989C30.9765 6.52758 31.0017 6.65376 31.0017 6.78118C31.0017 6.9086 30.9765 7.03478 30.9277 7.15247C30.8789 7.27016 30.8073 7.37707 30.7171 7.46706L25.8733 12.3108C25.6914 12.4927 25.4447 12.5949 25.1874 12.5949C24.9302 12.5949 24.6835 12.4927 24.5016 12.3108C24.3197 12.1289 24.2175 11.8822 24.2175 11.6249C24.2175 11.3677 24.3197 11.121 24.5016 10.9391L27.6926 7.74993H18.4062C18.1493 7.74993 17.9029 7.64787 17.7212 7.46619C17.5395 7.28451 17.4374 7.03811 17.4374 6.78118C17.4374 6.52425 17.5395 6.27785 17.7212 6.09617C17.9029 5.9145 18.1493 5.81243 18.4062 5.81243H27.6926L24.5016 2.62331C24.4113 2.53332 24.3398 2.42641 24.2909 2.30872C24.2421 2.19103 24.217 2.06485 24.217 1.93743C24.217 1.81001 24.2421 1.68383 24.2909 1.56614C24.3398 1.44845 24.4113 1.34154 24.5016 1.25156Z" fill="black"/>
<path d="M7.07956 2.57293L0.763533 7.4829L0.764301 7.48389L7.07956 2.57293ZM5.113 2.45087L10.7726 8.10499L10.7734 8.1042L5.113 2.45087ZM3.10962 4.45618L-2.54997 -1.19794L-2.55308 -1.19482L3.10962 4.45618ZM2.23775 7.88556L-5.31058 10.5356L-5.3072 10.5452L2.23775 7.88556ZM10.3132 20.6886L15.9766 15.0382L15.9701 15.0317L15.9636 15.0253L10.3132 20.6886ZM23.1162 28.7641L20.4566 36.309L20.4662 36.3124L23.1162 28.7641ZM26.5456 27.8922L32.1966 33.5549L32.2025 33.549L26.5456 27.8922ZM28.549 25.8888L22.8957 20.2284L22.8921 20.232L28.549 25.8888ZM28.4269 23.9222L23.516 30.2375L23.517 30.2383L28.4269 23.9222ZM23.9571 20.4464L28.8681 14.1311L28.8596 14.1245L28.851 14.1179L23.9571 20.4464ZM22.8334 20.21L20.9037 12.4462L20.8948 12.4484L22.8334 20.21ZM18.5903 21.2698L20.5175 29.0342L20.5289 29.0314L18.5903 21.2698ZM15.3798 20.3805L9.72181 26.0362L9.72701 26.0414L9.73222 26.0466L15.3798 20.3805ZM10.6213 15.6201L4.95887 21.2713L4.96331 21.2758L10.6213 15.6201ZM9.73006 12.4096L1.96934 10.4677L1.96704 10.4768L1.96477 10.486L9.73006 12.4096ZM10.7918 8.16649L18.5525 10.1085L18.5556 10.0961L10.7918 8.16649ZM10.5554 7.04274L16.8839 2.14886L16.8773 2.14031L16.8707 2.13179L10.5554 7.04274ZM3.65019 0.989993L-2.00757 -4.66596L-2.0094 -4.66412L3.65019 0.989993ZM8.71094 1.30581L2.3939 6.21448L2.39671 6.21809L8.71094 1.30581ZM12.1868 5.77368L18.5016 0.862156L18.501 0.861397L12.1868 5.77368ZM12.7971 8.66831L5.03598 6.72802L5.03557 6.72969L12.7971 8.66831ZM11.7373 12.9114L3.97575 10.9728L3.97374 10.9809L3.97174 10.9889L11.7373 12.9114ZM12.0822 14.1572L6.41074 19.7995L6.41802 19.8068L6.42533 19.8141L12.0822 14.1572ZM16.8426 18.9177L11.1858 24.5745L11.1919 24.5807L11.1981 24.5868L16.8426 18.9177ZM18.0904 19.2626L20.0223 27.0258L20.0298 27.0239L18.0904 19.2626ZM22.3316 18.2027L20.4018 10.439L20.3921 10.4414L22.3316 18.2027ZM25.2262 18.8131L30.1385 12.4988L30.1323 12.494L30.1262 12.4893L25.2262 18.8131ZM29.6941 22.2889L34.6066 15.9749L34.6063 15.9747L29.6941 22.2889ZM30.0099 27.3477L24.3568 21.6871L24.353 21.6909L30.0099 27.3477ZM22.4323 30.7112L25.0891 23.1653L25.0844 23.1636L22.4323 30.7112ZM8.85044 22.1475L14.5176 16.501L14.5072 16.4905L14.4967 16.4801L8.85044 22.1475ZM0.286686 8.56756L-7.26075 11.2201L-7.26069 11.2203L0.286686 8.56756ZM1.64875 2.99337L7.3056 8.65022L7.30834 8.64748L1.64875 2.99337ZM24.5016 1.25156L30.1513 6.91556L30.1584 6.90841L30.1656 6.90126L24.5016 1.25156ZM25.1874 0.966949L25.1874 -7.03305L25.1874 0.966949ZM25.8733 1.25156L20.2093 6.90126L20.2165 6.90841L25.8733 1.25156ZM30.7171 6.09531L25.0602 11.7522L25.0674 11.7593L30.7171 6.09531ZM30.7171 7.46706L25.0674 1.80305L25.0602 1.8102L30.7171 7.46706ZM25.8733 12.3108L31.5302 17.9677L31.5302 17.9677L25.8733 12.3108ZM25.1874 12.5949L25.1874 4.5949L25.1874 12.5949ZM24.5016 10.9391L18.8464 5.28048L18.8447 5.2822L24.5016 10.9391ZM27.6926 7.74993L33.3478 13.4085L47.0146 -0.250069L27.6926 -0.250069V7.74993ZM18.4062 5.81243V13.8124V5.81243ZM27.6926 5.81243V13.8124H47.0146L33.3478 0.153856L27.6926 5.81243ZM24.5016 2.62331L30.1567 -3.03527L30.1513 -3.04069L24.5016 2.62331ZM7.07956 2.57293L13.3956 -2.33704C12.5846 -3.38021 11.561 -4.23889 10.3927 -4.85605L6.65603 2.21764L2.91932 9.29133C2.08059 8.84826 1.34572 8.2318 0.763534 7.4829L7.07956 2.57293ZM6.65603 2.21764L10.3927 -4.85605C9.22443 -5.4732 7.93819 -5.83472 6.61943 -5.91657L6.12383 2.06806L5.62823 10.0527C4.68147 9.99393 3.75806 9.73439 2.91932 9.29133L6.65603 2.21764ZM6.12383 2.06806L6.61943 -5.91657C5.30067 -5.99843 3.97959 -5.79875 2.74394 -5.3308L5.57722 2.15068L8.4105 9.63216C7.5234 9.96811 6.57498 10.1115 5.62823 10.0527L6.12383 2.06806ZM5.57722 2.15068L2.74394 -5.3308C1.50828 -4.86285 0.386339 -4.13734 -0.547376 -3.20246L5.113 2.45087L10.7734 8.1042C10.103 8.77536 9.29759 9.29621 8.4105 9.63216L5.57722 2.15068ZM5.113 2.45087L-0.54659 -3.20325L-2.54996 -1.19794L3.10962 4.45618L8.76921 10.1103L10.7726 8.10499L5.113 2.45087ZM3.10962 4.45618L-2.55308 -1.19482C-5.41355 1.67157 -6.84787 6.15686 -5.31057 10.5356L2.23775 7.88556L9.78607 5.23548C10.5057 7.28537 9.76117 9.11629 8.77232 10.1072L3.10962 4.45618ZM2.23775 7.88556L-5.3072 10.5452C-3.21002 16.4945 0.19727 21.8965 4.66285 26.3519L10.3132 20.6886L15.9636 15.0253C13.1952 12.2631 11.0828 8.91416 9.78269 5.22589L2.23775 7.88556ZM10.3132 20.6886L4.64995 26.339C9.10535 30.8045 14.5073 34.2118 20.4566 36.309L23.1162 28.7641L25.7759 21.2191C22.0876 19.919 18.7387 17.8066 15.9766 15.0382L10.3132 20.6886ZM23.1162 28.7641L20.4662 36.3124C24.8449 37.8497 29.3302 36.4153 32.1966 33.5549L26.5456 27.8922L20.8946 22.2295C21.8855 21.2406 23.7164 20.4961 25.7663 21.2157L23.1162 28.7641ZM26.5456 27.8922L32.2025 33.549L34.2059 31.5457L28.549 25.8888L22.8921 20.232L20.8888 22.2353L26.5456 27.8922ZM28.549 25.8888L34.2023 31.5492C35.1372 30.6155 35.8627 29.4935 36.3307 28.2579L28.8492 25.4246L21.3677 22.5913C21.7037 21.7042 22.2245 20.8987 22.8957 20.2284L28.549 25.8888ZM28.8492 25.4246L36.3307 28.2579C36.7986 27.0222 36.9983 25.7012 36.9164 24.3824L28.9318 24.878L20.9472 25.3736C20.8884 24.4268 21.0318 23.4784 21.3677 22.5913L28.8492 25.4246ZM28.9318 24.878L36.9164 24.3824C36.8346 23.0636 36.4731 21.7774 35.8559 20.6091L28.7822 24.3458L21.7085 28.0825C21.2655 27.2437 21.0059 26.3203 20.9472 25.3736L28.9318 24.878ZM28.7822 24.3458L35.8559 20.6091C35.2387 19.4407 34.38 18.4171 33.3369 17.6062L28.4269 23.9222L23.517 30.2383C22.7681 29.6561 22.1516 28.9213 21.7085 28.0825L28.7822 24.3458ZM28.4269 23.9222L33.3379 17.607L28.8681 14.1311L23.9571 20.4464L19.0462 26.7616L23.516 30.2375L28.4269 23.9222ZM23.9571 20.4464L28.851 14.1179C27.7385 13.2575 26.4455 12.6601 25.0691 12.3706L23.4224 20.1993L21.7756 28.028C20.7884 27.8203 19.8611 27.3919 19.0632 26.7749L23.9571 20.4464ZM23.4224 20.1993L25.0691 12.3706C23.6927 12.0811 22.2687 12.1069 20.9037 12.4462L22.8334 20.21L24.763 27.9738C23.7841 28.2171 22.7628 28.2356 21.7756 28.028L23.4224 20.1993ZM22.8334 20.21L20.8948 12.4484L16.6516 13.5082L18.5903 21.2698L20.5289 29.0314L24.772 27.9715L22.8334 20.21ZM18.5903 21.2698L16.663 13.5054C17.433 13.3143 18.2393 13.3251 19.0039 13.5369L16.8683 21.2466L14.7326 28.9563C16.6221 29.4797 18.6147 29.5065 20.5175 29.0342L18.5903 21.2698ZM16.8683 21.2466L19.0039 13.5369C19.7685 13.7487 20.4655 14.1543 21.0274 14.7144L15.3798 20.3805L9.73222 26.0466C11.1208 27.4307 12.8432 28.4329 14.7326 28.9563L16.8683 21.2466ZM15.3798 20.3805L21.0378 14.7248L16.2793 9.96435L10.6213 15.6201L4.96331 21.2758L9.72181 26.0362L15.3798 20.3805ZM10.6213 15.6201L16.2837 9.96879C16.8443 10.5304 17.2504 11.2273 17.4626 11.9919L9.75414 14.1319L2.04567 16.2718C2.57021 18.1613 3.57365 19.8834 4.95887 21.2713L10.6213 15.6201ZM9.75414 14.1319L17.4626 11.9919C17.6749 12.7565 17.6862 13.563 17.4954 14.3332L9.73006 12.4096L1.96477 10.486C1.49326 12.3894 1.52113 14.3823 2.04567 16.2718L9.75414 14.1319ZM9.73006 12.4096L17.4908 14.3516L18.5525 10.1084L10.7918 8.16649L3.03109 6.22454L1.96934 10.4677L9.73006 12.4096ZM10.7918 8.16649L18.5556 10.0961C18.8949 8.73116 18.9207 7.30712 18.6312 5.93079L10.8025 7.57751L2.97381 9.22423C2.76618 8.23714 2.7847 7.21582 3.02802 6.23685L10.7918 8.16649ZM10.8025 7.57751L18.6312 5.93079C18.3417 4.55444 17.7443 3.26148 16.8839 2.14886L10.5554 7.04274L4.22694 11.9366C3.60986 11.1387 3.18145 10.2113 2.97381 9.22423L10.8025 7.57751ZM10.5554 7.04274L16.8707 2.13179L13.3948 -2.33803L7.07956 2.57293L0.764301 7.48389L4.24018 11.9537L10.5554 7.04274ZM3.65019 0.989993L9.30794 6.64595C8.84472 7.10931 8.28823 7.46883 7.67541 7.70063L4.84512 0.218018L2.01482 -7.26459C0.504901 -6.69346 -0.866245 -5.80765 -2.00757 -4.66596L3.65019 0.989993ZM4.84512 0.218018L7.67541 7.70063C7.0626 7.93242 6.40748 8.0312 5.75356 7.99039L6.25183 0.00592345L6.75009 -7.97854C5.1389 -8.07909 3.52475 -7.83572 2.01482 -7.26459L4.84512 0.218018ZM6.25183 0.00592345L5.75356 7.99039C5.09964 7.94958 4.46189 7.77013 3.88264 7.46394L7.62125 0.391261L11.3599 -6.68142C9.93265 -7.43584 8.36129 -7.878 6.75009 -7.97854L6.25183 0.00592345ZM7.62125 0.391261L3.88264 7.46394C3.3034 7.15775 2.79592 6.73184 2.3939 6.21448L8.71094 1.30581L15.028 -3.60287C14.0374 -4.87759 12.7871 -5.927 11.3599 -6.68142L7.62125 0.391261ZM8.71094 1.30581L2.39671 6.21809L5.87258 10.686L12.1868 5.77368L18.501 0.861397L15.0252 -3.60648L8.71094 1.30581ZM12.1868 5.77368L5.87199 10.6852C4.99793 9.56141 4.69255 8.10175 5.03598 6.72802L12.7971 8.66831L20.5583 10.6086C21.4054 7.21986 20.6506 3.62508 18.5016 0.862156L12.1868 5.77368ZM12.7971 8.66831L5.03557 6.72969L3.97575 10.9728L11.7373 12.9114L19.4989 14.85L20.5587 10.6069L12.7971 8.66831ZM11.7373 12.9114L3.97174 10.9889C3.58693 12.5433 3.60921 14.1706 4.03643 15.7139L11.7465 13.5795L19.4565 11.4452C19.7629 12.552 19.7789 13.7191 19.5029 14.8339L11.7373 12.9114ZM11.7465 13.5795L4.03643 15.7139C4.46365 17.2572 5.28138 18.6643 6.41074 19.7995L12.0822 14.1572L17.7536 8.51502C18.5636 9.32919 19.1501 10.3384 19.4565 11.4452L11.7465 13.5795ZM12.0822 14.1572L6.42533 19.8141L11.1858 24.5745L16.8426 18.9177L22.4995 13.2608L17.739 8.50039L12.0822 14.1572ZM16.8426 18.9177L11.1981 24.5868C12.3346 25.7184 13.7441 26.5375 15.29 26.9648L17.4212 19.2539L19.5525 11.5431C20.6612 11.8495 21.672 12.4369 22.4872 13.2486L16.8426 18.9177ZM17.4212 19.2539L15.29 26.9648C16.8359 27.3921 18.4659 27.4131 20.0223 27.0258L18.0904 19.2626L16.1585 11.4993C17.2747 11.2215 18.4438 11.2366 19.5525 11.5431L17.4212 19.2539ZM18.0904 19.2626L20.0298 27.0239L24.271 25.9641L22.3316 18.2027L20.3921 10.4414L16.1509 11.5012L18.0904 19.2626ZM22.3316 18.2027L24.2613 25.9665C23.5853 26.1345 22.88 26.1472 22.1985 26.0035L23.8489 18.1756L25.4994 10.3477C23.8151 9.99255 22.0723 10.0238 20.4018 10.439L22.3316 18.2027ZM23.8489 18.1756L22.1985 26.0035C21.5169 25.8598 20.8768 25.5635 20.3262 25.1368L25.2262 18.8131L30.1262 12.4893C28.7655 11.435 27.1837 10.7028 25.4994 10.3477L23.8489 18.1756ZM25.2262 18.8131L20.3139 25.1273L24.7818 28.6032L29.6941 22.2889L34.6063 15.9747L30.1385 12.4988L25.2262 18.8131ZM29.6941 22.2889L24.7815 28.6029C22.5945 26.9013 22.3831 23.6582 24.3568 21.6871L30.0099 27.3477L35.6629 33.0084C40.5119 28.166 40.006 20.1759 34.6066 15.9749L29.6941 22.2889ZM30.0099 27.3477L24.353 21.6909L22.3496 23.6943L28.0065 29.3511L33.6634 35.008L35.6667 33.0046L30.0099 27.3477ZM28.0065 29.3511L22.3496 23.6943C22.8292 23.2147 23.847 22.7279 25.0891 23.1653L22.4323 30.7112L19.7755 38.2572C25.0128 40.1012 30.3163 38.355 33.6634 35.008L28.0065 29.3511ZM22.4323 30.7112L25.0844 23.1636C21.1059 21.7657 17.494 19.4882 14.5176 16.501L8.85044 22.1475L3.18328 27.794C7.85821 32.486 13.5313 36.0631 19.7802 38.2588L22.4323 30.7112ZM8.85044 22.1475L14.4967 16.4801C11.5096 13.5041 9.23224 9.89275 7.83406 5.91479L0.286686 8.56756L-7.26069 11.2203C-5.06461 17.4684 -1.48758 23.1406 3.20414 27.8149L8.85044 22.1475ZM0.286686 8.56756L7.83412 5.91496C8.27061 7.15692 7.78501 8.17081 7.3056 8.65022L1.64875 2.99337L-4.00811 -2.66349C-7.35502 0.683423 -9.09999 5.98694 -7.26075 11.2201L0.286686 8.56756ZM1.64875 2.99337L7.30834 8.64748L9.30978 6.64411L3.65019 0.989993L-2.0094 -4.66412L-4.01084 -2.66075L1.64875 2.99337ZM24.5016 1.25156L30.1656 6.90126C29.5124 7.55608 28.7365 8.07558 27.8823 8.43003L24.8161 1.04093L21.75 -6.34817C20.6604 -5.89605 19.6707 -5.2334 18.8376 -4.39814L24.5016 1.25156ZM24.8161 1.04093L27.8823 8.43003C27.0281 8.78449 26.1123 8.96695 25.1874 8.96695L25.1874 0.966949L25.1874 -7.03305C24.0077 -7.03305 22.8396 -6.80032 21.75 -6.34817L24.8161 1.04093ZM25.1874 0.966949L25.1874 8.96695C24.2626 8.96695 23.3468 8.78449 22.4926 8.43003L25.5587 1.04093L28.6249 -6.34817C27.5353 -6.80031 26.3672 -7.03305 25.1874 -7.03305L25.1874 0.966949ZM25.5587 1.04093L22.4926 8.43003C21.6384 8.07558 20.8625 7.55608 20.2093 6.90126L25.8733 1.25156L31.5373 -4.39814C30.7042 -5.2334 29.7144 -5.89605 28.6249 -6.34817L25.5587 1.04093ZM25.8733 1.25156L20.2165 6.90841L25.0602 11.7522L30.7171 6.09531L36.3739 0.438451L31.5302 -4.4053L25.8733 1.25156ZM30.7171 6.09531L25.0674 11.7593C24.4125 11.1061 23.893 10.3302 23.5386 9.47603L30.9277 6.40989L38.3168 3.34375C37.8647 2.2542 37.202 1.26447 36.3668 0.431305L30.7171 6.09531ZM30.9277 6.40989L23.5386 9.47603C23.1842 8.62189 23.0017 7.70613 23.0017 6.78118H31.0017H39.0017C39.0017 5.60139 38.7689 4.43328 38.3168 3.34375L30.9277 6.40989ZM31.0017 6.78118H23.0017C23.0017 5.85624 23.1842 4.94048 23.5386 4.08633L30.9277 7.15247L38.3168 10.2186C38.7689 9.12908 39.0017 7.96097 39.0017 6.78118H31.0017ZM30.9277 7.15247L23.5386 4.08633C23.893 3.23217 24.4125 2.45625 25.0674 1.80306L30.7171 7.46706L36.3668 13.1311C37.202 12.2979 37.8647 11.3082 38.3168 10.2186L30.9277 7.15247ZM30.7171 7.46706L25.0602 1.8102L20.2165 6.65395L25.8733 12.3108L31.5302 17.9677L36.3739 13.1239L30.7171 7.46706ZM25.8733 12.3108L20.2165 6.65395C21.5348 5.33557 23.323 4.5949 25.1874 4.5949L25.1874 12.5949L25.1874 20.5949C27.5664 20.5949 29.848 19.6499 31.5302 17.9677L25.8733 12.3108ZM25.1874 12.5949L25.1874 4.5949C27.0519 4.5949 28.84 5.33555 30.1584 6.65395L24.5016 12.3108L18.8447 17.9677C20.5269 19.6499 22.8085 20.5949 25.1874 20.5949L25.1874 12.5949ZM24.5016 12.3108L30.1584 6.65395C31.4768 7.97235 32.2175 9.76047 32.2175 11.6249L24.2175 11.6249L16.2175 11.6249C16.2175 14.0039 17.1625 16.2854 18.8447 17.9677L24.5016 12.3108ZM24.2175 11.6249L32.2175 11.6249C32.2175 13.4894 31.4768 15.2775 30.1584 16.5959L24.5016 10.9391L18.8447 5.2822C17.1625 6.96442 16.2175 9.24598 16.2175 11.6249L24.2175 11.6249ZM24.5016 10.9391L30.1567 16.5976L33.3478 13.4085L27.6926 7.74993L22.0375 2.09136L18.8464 5.28048L24.5016 10.9391ZM27.6926 7.74993V-0.250069H18.4062V7.74993V15.7499H27.6926V7.74993ZM18.4062 7.74993V-0.250069C20.271 -0.250069 22.0594 0.490723 23.378 1.80934L17.7212 7.46619L12.0643 13.123C13.7463 14.805 16.0275 15.7499 18.4062 15.7499V7.74993ZM17.7212 7.46619L23.378 1.80934C24.6967 3.12797 25.4374 4.9164 25.4374 6.78118H17.4374H9.43744C9.43744 9.15982 10.3823 11.4411 12.0643 13.123L17.7212 7.46619ZM17.4374 6.78118H25.4374C25.4374 8.64596 24.6967 10.4344 23.378 11.753L17.7212 6.09617L12.0643 0.439317C10.3823 2.1213 9.43744 4.40254 9.43744 6.78118H17.4374ZM17.7212 6.09617L23.378 11.753C22.0594 13.0716 20.271 13.8124 18.4062 13.8124L18.4062 5.81243L18.4062 -2.18757C16.0275 -2.18757 13.7463 -1.24265 12.0643 0.439317L17.7212 6.09617ZM18.4062 5.81243V13.8124H27.6926V5.81243V-2.18757H18.4062V5.81243ZM27.6926 5.81243L33.3478 0.153856L30.1567 -3.03527L24.5016 2.62331L18.8464 8.28188L22.0375 11.471L27.6926 5.81243ZM24.5016 2.62331L30.1513 -3.04069C30.8061 -2.3875 31.3256 -1.61158 31.68 -0.757417L24.2909 2.30872L16.9018 5.37486C17.3539 6.46441 18.0166 7.45413 18.8519 8.28731L24.5016 2.62331ZM24.2909 2.30872L31.68 -0.757417C32.0345 0.0967975 32.217 1.01256 32.217 1.93743H24.217H16.217C16.217 3.11715 16.4497 4.28526 16.9018 5.37486L24.2909 2.30872ZM24.217 1.93743H32.217C32.217 2.8623 32.0345 3.77806 31.68 4.63228L24.2909 1.56614L16.9018 -1.5C16.4497 -0.410396 16.217 0.757714 16.217 1.93743H24.217ZM24.2909 1.56614L31.68 4.63228C31.3256 5.48644 30.8061 6.26236 30.1513 6.91556L24.5016 1.25156L18.8519 -4.41244C18.0166 -3.57927 17.3539 -2.58955 16.9018 -1.5L24.2909 1.56614Z" fill="#00B7FF" mask="url(#path-1-inside-1_2_122)"/>
</svg>
