<svg width="14" height="7" viewBox="0 0 14 7" fill="none" xmlns="http://www.w3.org/2000/svg">
<path fill-rule="evenodd" clip-rule="evenodd" d="M0.153507 0.146894C0.201445 0.10033 0.258394 0.0633873 0.321091 0.0381808C0.383788 0.0129744 0.451002 0 0.518883 0C0.586763 0 0.653977 0.0129744 0.716675 0.0381808C0.779372 0.0633873 0.836321 0.10033 0.884259 0.146894L6.71172 5.00089L12.5391 0.146894C12.5871 0.100406 12.6441 0.0635292 12.7068 0.0383701C12.7695 0.013211 12.8367 0.000261784 12.9045 0.000261784C12.9724 0.000261784 13.0396 0.013211 13.1023 0.0383701C13.1649 0.0635292 13.2219 0.100406 13.2699 0.146894C13.3179 0.193381 13.3559 0.248571 13.3819 0.30931C13.4079 0.370049 13.4212 0.43515 13.4212 0.500894C13.4212 0.566637 13.4079 0.631738 13.3819 0.692477C13.3559 0.753217 13.3179 0.808406 13.2699 0.854894L7.07708 6.85489C7.02914 6.90146 6.97219 6.9384 6.90949 6.96361C6.84679 6.98881 6.77958 7.00179 6.7117 7.00179C6.64382 7.00179 6.5766 6.98881 6.51391 6.96361C6.45121 6.9384 6.39426 6.90146 6.34632 6.85489L0.153507 0.854894C0.105447 0.808448 0.0673169 0.753272 0.0413004 0.692527C0.0152839 0.631782 0.00189209 0.566661 0.00189209 0.500894C0.00189209 0.435126 0.0152839 0.370005 0.0413004 0.30926C0.0673169 0.248515 0.105447 0.193339 0.153507 0.146894Z" fill="black"/>
</svg>
