<svg width="9" height="9" viewBox="0 0 9 9" fill="none" xmlns="http://www.w3.org/2000/svg">
<path fill-rule="evenodd" clip-rule="evenodd" d="M0.242641 0.242589C0.336409 0.148821 0.463586 0.0961421 0.596194 0.0961421C0.728803 0.0961421 0.855979 0.148821 0.949747 0.242589L4.48528 3.77812L8.02082 0.242589C8.11458 0.148821 8.24176 0.0961421 8.37437 0.0961421C8.50698 0.0961421 8.63415 0.148821 8.72792 0.242589C8.82169 0.336357 8.87437 0.463534 8.87437 0.596142C8.87437 0.728751 8.82169 0.855927 8.72792 0.949696L5.19239 4.48523L8.72792 8.02076C8.82169 8.11453 8.87437 8.24171 8.87437 8.37432C8.87437 8.50692 8.82169 8.6341 8.72792 8.72787C8.63415 8.82164 8.50698 8.87432 8.37437 8.87432C8.24176 8.87432 8.11458 8.82164 8.02082 8.72787L4.48528 5.19234L0.949747 8.72787C0.855979 8.82164 0.728803 8.87432 0.596194 8.87432C0.463586 8.87432 0.336409 8.82164 0.242641 8.72787C0.148872 8.6341 0.0961941 8.50692 0.0961941 8.37432C0.0961941 8.24171 0.148872 8.11453 0.242641 8.02076L3.77817 4.48523L0.242641 0.949696C0.148872 0.855927 0.0961941 0.728751 0.0961941 0.596142C0.0961941 0.463534 0.148872 0.336357 0.242641 0.242589Z" fill="#F5F5F5"/>
</svg>
