<svg width="61" height="64" viewBox="0 0 61 64" fill="none" xmlns="http://www.w3.org/2000/svg">
<g clip-path="url(#clip0_92_38)">
<path fill-rule="evenodd" clip-rule="evenodd" d="M33.2989 11.7523C44.5548 13.5009 52.2619 24.0431 50.5133 35.299C48.7647 46.5548 38.2225 54.262 26.9666 52.5133C15.7108 50.7647 8.00361 40.2225 9.75223 28.9667C10.2243 25.9282 11.3349 23.1534 12.9247 20.753C13.5537 19.8033 13.2937 18.5235 12.344 17.8945C11.3943 17.2656 10.1146 17.5255 9.4856 18.4752C7.57406 21.3615 6.24128 24.6955 5.67612 28.3334C3.57778 41.8405 12.8264 54.4911 26.3334 56.5895C39.8404 58.6878 52.4911 49.4392 54.5894 35.9322C56.6877 22.4252 47.4392 9.77451 33.9321 7.67617L33.2989 11.7523Z" fill="white"/>
<path d="M32.3704 17.7288L34.8606 1.69962C34.9948 0.835653 34.0605 0.20714 33.3108 0.65713L22.4482 7.17764C21.8961 7.50909 21.7794 8.25996 22.205 8.74331L30.5774 18.252C31.1552 18.9082 32.2362 18.5928 32.3704 17.7288Z" fill="white"/>
<path fill-rule="evenodd" clip-rule="evenodd" d="M27.2191 52.4366C15.9322 50.9007 8.02748 40.5059 9.56333 29.219C11.0992 17.9321 21.4941 10.0274 32.7809 11.5633C44.0678 13.0991 51.9725 23.494 50.4367 34.7808C50.0221 37.8277 48.964 40.6229 47.4198 43.053C46.8088 44.0143 47.0929 45.289 48.0543 45.8999C49.0157 46.5108 50.2903 46.2268 50.9013 45.2654C52.758 42.3436 54.0276 38.9849 54.524 35.337C56.367 21.7928 46.8813 9.31895 33.3371 7.47593C19.7929 5.6329 7.31903 15.1186 5.476 28.6628C3.63297 42.2071 13.1187 54.6809 26.6629 56.5239L27.2191 52.4366Z" fill="white"/>
<path d="M28.0346 46.4436L25.8474 62.5169C25.7295 63.3833 26.6756 63.994 27.4166 63.53L38.1542 56.8056C38.7 56.4638 38.8025 55.7109 38.3678 55.2356L29.8174 45.8866C29.2273 45.2415 28.1525 45.5772 28.0346 46.4436Z" fill="white"/>
<g clip-path="url(#clip1_92_38)">
<path d="M30 20C26.8174 20 23.7652 21.2643 21.5147 23.5147C19.2643 25.7652 18 28.8174 18 32C18 35.1826 19.2643 38.2348 21.5147 40.4853C23.7652 42.7357 26.8174 44 30 44C33.1826 44 36.2348 42.7357 38.4853 40.4853C40.7357 38.2348 42 35.1826 42 32C42 28.8174 40.7357 25.7652 38.4853 23.5147C36.2348 21.2643 33.1826 20 30 20ZM23.502 23.7515L23.07 24.7205C22.9384 25.0117 22.9214 25.3418 23.0223 25.645C23.1232 25.9482 23.3347 26.2022 23.6146 26.3564C23.8945 26.5107 24.2222 26.5538 24.5324 26.4771C24.8426 26.4005 25.1126 26.2098 25.2885 25.943L25.656 25.391C25.8202 25.1455 26.0682 24.9681 26.3537 24.8922C26.6392 24.8163 26.9425 24.847 27.207 24.9785C27.3756 25.0627 27.5615 25.1066 27.75 25.1066C27.9385 25.1066 28.1244 25.0627 28.293 24.9785L28.6845 24.7835C28.8635 24.6941 29.0585 24.6414 29.2582 24.6285C29.4578 24.6157 29.658 24.6428 29.847 24.7085L31.323 25.2185C31.441 25.2585 31.5625 25.2855 31.6875 25.2995C32.8635 25.439 32.97 25.865 32.7285 26.501C32.496 27.116 31.8045 27.4265 31.176 27.2315L31.161 27.227C30.411 26.9945 29.622 26.75 27 26.75C25.2 26.75 23.25 28.43 23.25 30.5C23.25 33.44 24.489 33.749 25.794 34.073C26.484 34.2455 27.1965 34.4225 27.75 35C28.4235 35.7005 28.3395 36.7715 28.2585 37.8155C28.1325 39.44 28.011 41 30.75 41C33.375 41 35.25 35.75 35.25 34.25C35.25 33.857 35.562 33.548 35.916 33.2C36.51 32.612 37.221 31.91 36.75 30.5C36.6045 30.0635 36.156 29.648 35.7885 29.366C35.5275 29.1665 35.478 28.772 35.7105 28.5395C35.7916 28.4571 35.899 28.4056 36.0141 28.3941C36.1292 28.3826 36.2447 28.4117 36.3405 28.4765L37.968 29.5625C38.133 29.6705 38.3505 29.6495 38.49 29.51C38.715 29.285 39.1125 29.3855 39.2235 29.6855C39.4635 30.3305 39.891 31.2605 40.497 31.721L40.5 32C40.4999 33.7792 40.0477 35.5292 39.1858 37.0857C38.3239 38.6422 37.0807 39.9541 35.5727 40.8984C34.0648 41.8427 32.3417 42.3883 30.5651 42.4841C28.7884 42.5798 27.0166 42.2225 25.416 41.4458C23.8153 40.669 22.4382 39.4983 21.4141 38.0434C20.3899 36.5886 19.7522 34.8973 19.5609 33.1285C19.3696 31.3596 19.6308 29.5711 20.3202 27.9309C21.0096 26.2907 22.1044 24.8526 23.502 23.7515Z" fill="white"/>
</g>
<path d="M20 8L25 14M35.5 50L40.5 56" stroke="#1290DD" stroke-width="3"/>
</g>
<defs>
<clipPath id="clip0_92_38">
<rect width="61" height="67" fill="white"/>
</clipPath>
<clipPath id="clip1_92_38">
<rect width="24" height="24" fill="white" transform="translate(18 20)"/>
</clipPath>
</defs>
</svg>
