<svg xmlns="http://www.w3.org/2000/svg" width="58" height="58" viewBox="0 0 58 58" fill="none">
<path d="M18.125 0H47.125C51.1291 0 54.375 3.24593 54.375 7.25V43.5C54.375 47.5041 51.1291 50.75 47.125 50.75C47.125 54.7541 43.8791 58 39.875 58H10.875C6.87094 58 3.625 54.7541 3.625 50.75H7.25C7.25 52.752 8.87297 54.375 10.875 54.375H39.875C41.877 54.375 43.5 52.752 43.5 50.75V14.5C43.5 12.498 41.877 10.875 39.875 10.875H10.875C8.87297 10.875 7.25 12.498 7.25 14.5H3.625C3.625 10.4959 6.87094 7.25 10.875 7.25H39.875C43.8791 7.25 47.125 10.4959 47.125 14.5V47.125C49.127 47.125 50.75 45.502 50.75 43.5V7.25C50.75 5.24797 49.127 3.625 47.125 3.625H18.125C16.123 3.625 14.5 5.24797 14.5 7.25L10.875 7.25C10.875 3.24593 14.1209 0 18.125 0Z" fill="#1290DD"/>
<path d="M3.625 21.75V19.9375C3.625 18.9365 4.43648 18.125 5.4375 18.125C6.43852 18.125 7.25 18.9365 7.25 19.9375V21.75H9.0625C10.0635 21.75 10.875 22.5615 10.875 23.5625C10.875 24.5635 10.0635 25.375 9.0625 25.375H1.8125C0.811484 25.375 0 24.5635 0 23.5625C0 22.5615 0.811484 21.75 1.8125 21.75H3.625Z" fill="#1290DD"/>
<path d="M3.625 32.625V30.8125C3.625 29.8115 4.43648 29 5.4375 29C6.43852 29 7.25 29.8115 7.25 30.8125V32.625H9.0625C10.0635 32.625 10.875 33.4365 10.875 34.4375C10.875 35.4385 10.0635 36.25 9.0625 36.25H1.8125C0.811484 36.25 0 35.4385 0 34.4375C0 33.4365 0.811484 32.625 1.8125 32.625H3.625Z" fill="#1290DD"/>
<path d="M3.625 41.6875V43.5H1.8125C0.811484 43.5 0 44.3115 0 45.3125C0 46.3135 0.811484 47.125 1.8125 47.125H9.0625C10.0635 47.125 10.875 46.3135 10.875 45.3125C10.875 44.3115 10.0635 43.5 9.0625 43.5H7.25V41.6875C7.25 40.6865 6.43852 39.875 5.4375 39.875C4.43648 39.875 3.625 40.6865 3.625 41.6875Z" fill="#1290DD"/>
</svg>
